<mxfile host="app.diagrams.net" agent="Mozilla/5.0 (Windows NT 10.0; Win64; x64; rv:132.0) Gecko/20100101 Firefox/132.0" version="24.8.4">
  <diagram name="Page-1" id="KmHmWlrcCJRHUjH3SWAp">
    <mxGraphModel dx="2049" dy="1036" grid="1" gridSize="10" guides="1" tooltips="1" connect="1" arrows="1" fold="1" page="1" pageScale="1" pageWidth="1400" pageHeight="850" math="0" shadow="0">
      <root>
        <mxCell id="0" />
        <mxCell id="1" parent="0" />
        <mxCell id="458_SJfopfldQqDJjqZw-4" value="" style="edgeStyle=orthogonalEdgeStyle;rounded=0;orthogonalLoop=1;jettySize=auto;html=1;curved=0;" edge="1" parent="1" source="458_SJfopfldQqDJjqZw-1" target="458_SJfopfldQqDJjqZw-3">
          <mxGeometry relative="1" as="geometry" />
        </mxCell>
        <mxCell id="458_SJfopfldQqDJjqZw-1" value="" style="html=1;points=[[0,0,0,0,5],[0,1,0,0,-5],[1,0,0,0,5],[1,1,0,0,-5]];perimeter=orthogonalPerimeter;outlineConnect=0;targetShapes=umlLifeline;portConstraint=eastwest;newEdgeStyle={&quot;curved&quot;:0,&quot;rounded&quot;:0};fillColor=#000000;" vertex="1" parent="1">
          <mxGeometry x="65" y="380" width="10" height="80" as="geometry" />
        </mxCell>
        <mxCell id="458_SJfopfldQqDJjqZw-9" style="edgeStyle=orthogonalEdgeStyle;rounded=0;orthogonalLoop=1;jettySize=auto;html=1;" edge="1" parent="1" source="458_SJfopfldQqDJjqZw-3" target="458_SJfopfldQqDJjqZw-8">
          <mxGeometry relative="1" as="geometry">
            <Array as="points">
              <mxPoint x="265" y="395" />
              <mxPoint x="265" y="200" />
            </Array>
          </mxGeometry>
        </mxCell>
        <mxCell id="458_SJfopfldQqDJjqZw-10" style="edgeStyle=orthogonalEdgeStyle;rounded=0;orthogonalLoop=1;jettySize=auto;html=1;" edge="1" parent="1" source="458_SJfopfldQqDJjqZw-3" target="458_SJfopfldQqDJjqZw-41">
          <mxGeometry relative="1" as="geometry">
            <mxPoint x="405" y="714.9999999999998" as="targetPoint" />
            <Array as="points">
              <mxPoint x="265" y="435" />
              <mxPoint x="265" y="645" />
            </Array>
          </mxGeometry>
        </mxCell>
        <mxCell id="458_SJfopfldQqDJjqZw-3" value="" style="ellipse;whiteSpace=wrap;html=1;aspect=fixed;" vertex="1" parent="1">
          <mxGeometry x="145" y="380" width="80" height="80" as="geometry" />
        </mxCell>
        <mxCell id="458_SJfopfldQqDJjqZw-12" value="" style="edgeStyle=orthogonalEdgeStyle;rounded=0;orthogonalLoop=1;jettySize=auto;html=1;curved=0;" edge="1" parent="1" source="458_SJfopfldQqDJjqZw-8" target="458_SJfopfldQqDJjqZw-11">
          <mxGeometry relative="1" as="geometry" />
        </mxCell>
        <mxCell id="458_SJfopfldQqDJjqZw-68" style="edgeStyle=orthogonalEdgeStyle;rounded=0;orthogonalLoop=1;jettySize=auto;html=1;curved=0;entryX=1;entryY=0.5;entryDx=0;entryDy=0;" edge="1" parent="1" source="458_SJfopfldQqDJjqZw-8" target="458_SJfopfldQqDJjqZw-60">
          <mxGeometry relative="1" as="geometry">
            <Array as="points">
              <mxPoint x="445" y="235" />
              <mxPoint x="445" y="275" />
              <mxPoint x="575" y="275" />
              <mxPoint x="575" y="500" />
            </Array>
          </mxGeometry>
        </mxCell>
        <mxCell id="458_SJfopfldQqDJjqZw-8" value="" style="html=1;points=[[0,0,0,0,5],[0,1,0,0,-5],[1,0,0,0,5],[1,1,0,0,-5]];perimeter=orthogonalPerimeter;outlineConnect=0;targetShapes=umlLifeline;portConstraint=eastwest;newEdgeStyle={&quot;curved&quot;:0,&quot;rounded&quot;:0};fillColor=#000000;" vertex="1" parent="1">
          <mxGeometry x="405" y="160" width="10" height="80" as="geometry" />
        </mxCell>
        <mxCell id="458_SJfopfldQqDJjqZw-14" value="" style="edgeStyle=orthogonalEdgeStyle;rounded=0;orthogonalLoop=1;jettySize=auto;html=1;" edge="1" parent="1" source="458_SJfopfldQqDJjqZw-11" target="458_SJfopfldQqDJjqZw-13">
          <mxGeometry relative="1" as="geometry" />
        </mxCell>
        <mxCell id="458_SJfopfldQqDJjqZw-11" value="" style="ellipse;whiteSpace=wrap;html=1;aspect=fixed;" vertex="1" parent="1">
          <mxGeometry x="475" y="160" width="80" height="80" as="geometry" />
        </mxCell>
        <mxCell id="458_SJfopfldQqDJjqZw-16" value="" style="edgeStyle=orthogonalEdgeStyle;rounded=0;orthogonalLoop=1;jettySize=auto;html=1;curved=0;" edge="1" parent="1" source="458_SJfopfldQqDJjqZw-13" target="458_SJfopfldQqDJjqZw-15">
          <mxGeometry relative="1" as="geometry" />
        </mxCell>
        <mxCell id="458_SJfopfldQqDJjqZw-13" value="" style="html=1;points=[[0,0,0,0,5],[0,1,0,0,-5],[1,0,0,0,5],[1,1,0,0,-5]];perimeter=orthogonalPerimeter;outlineConnect=0;targetShapes=umlLifeline;portConstraint=eastwest;newEdgeStyle={&quot;curved&quot;:0,&quot;rounded&quot;:0};fillColor=#000000;" vertex="1" parent="1">
          <mxGeometry x="615" y="160" width="10" height="80" as="geometry" />
        </mxCell>
        <mxCell id="458_SJfopfldQqDJjqZw-18" value="" style="edgeStyle=orthogonalEdgeStyle;rounded=0;orthogonalLoop=1;jettySize=auto;html=1;" edge="1" parent="1" source="458_SJfopfldQqDJjqZw-15" target="458_SJfopfldQqDJjqZw-17">
          <mxGeometry relative="1" as="geometry" />
        </mxCell>
        <mxCell id="458_SJfopfldQqDJjqZw-15" value="" style="ellipse;whiteSpace=wrap;html=1;aspect=fixed;" vertex="1" parent="1">
          <mxGeometry x="695" y="160" width="80" height="80" as="geometry" />
        </mxCell>
        <mxCell id="458_SJfopfldQqDJjqZw-83" style="edgeStyle=orthogonalEdgeStyle;rounded=0;orthogonalLoop=1;jettySize=auto;html=1;curved=0;entryX=0.02;entryY=0.321;entryDx=0;entryDy=0;entryPerimeter=0;" edge="1" parent="1" source="458_SJfopfldQqDJjqZw-17" target="458_SJfopfldQqDJjqZw-29">
          <mxGeometry relative="1" as="geometry">
            <Array as="points">
              <mxPoint x="895" y="200" />
              <mxPoint x="895" y="405" />
              <mxPoint x="945" y="405" />
            </Array>
          </mxGeometry>
        </mxCell>
        <mxCell id="458_SJfopfldQqDJjqZw-17" value="" style="html=1;points=[[0,0,0,0,5],[0,1,0,0,-5],[1,0,0,0,5],[1,1,0,0,-5]];perimeter=orthogonalPerimeter;outlineConnect=0;targetShapes=umlLifeline;portConstraint=eastwest;newEdgeStyle={&quot;curved&quot;:0,&quot;rounded&quot;:0};fillColor=#000000;" vertex="1" parent="1">
          <mxGeometry x="835" y="160" width="10" height="80" as="geometry" />
        </mxCell>
        <mxCell id="458_SJfopfldQqDJjqZw-19" value="" style="edgeStyle=orthogonalEdgeStyle;rounded=0;orthogonalLoop=1;jettySize=auto;html=1;" edge="1" parent="1">
          <mxGeometry relative="1" as="geometry">
            <mxPoint x="775" y="210" as="sourcePoint" />
            <mxPoint x="835" y="210" as="targetPoint" />
          </mxGeometry>
        </mxCell>
        <mxCell id="458_SJfopfldQqDJjqZw-20" value="" style="edgeStyle=orthogonalEdgeStyle;rounded=0;orthogonalLoop=1;jettySize=auto;html=1;" edge="1" parent="1">
          <mxGeometry relative="1" as="geometry">
            <mxPoint x="775" y="190" as="sourcePoint" />
            <mxPoint x="835" y="190" as="targetPoint" />
          </mxGeometry>
        </mxCell>
        <mxCell id="458_SJfopfldQqDJjqZw-21" value="" style="edgeStyle=orthogonalEdgeStyle;rounded=0;orthogonalLoop=1;jettySize=auto;html=1;" edge="1" parent="1">
          <mxGeometry relative="1" as="geometry">
            <mxPoint x="775" y="220" as="sourcePoint" />
            <mxPoint x="835" y="220" as="targetPoint" />
          </mxGeometry>
        </mxCell>
        <mxCell id="458_SJfopfldQqDJjqZw-22" value="" style="edgeStyle=orthogonalEdgeStyle;rounded=0;orthogonalLoop=1;jettySize=auto;html=1;" edge="1" parent="1">
          <mxGeometry relative="1" as="geometry">
            <mxPoint x="775" y="230" as="sourcePoint" />
            <mxPoint x="835" y="230" as="targetPoint" />
          </mxGeometry>
        </mxCell>
        <mxCell id="458_SJfopfldQqDJjqZw-24" value="" style="edgeStyle=orthogonalEdgeStyle;rounded=0;orthogonalLoop=1;jettySize=auto;html=1;" edge="1" parent="1">
          <mxGeometry relative="1" as="geometry">
            <mxPoint x="775" y="180" as="sourcePoint" />
            <mxPoint x="835" y="180" as="targetPoint" />
          </mxGeometry>
        </mxCell>
        <mxCell id="458_SJfopfldQqDJjqZw-33" value="" style="edgeStyle=orthogonalEdgeStyle;rounded=0;orthogonalLoop=1;jettySize=auto;html=1;" edge="1" parent="1" source="458_SJfopfldQqDJjqZw-29" target="458_SJfopfldQqDJjqZw-31">
          <mxGeometry relative="1" as="geometry">
            <Array as="points">
              <mxPoint x="1055" y="415" />
              <mxPoint x="1055" y="415" />
            </Array>
          </mxGeometry>
        </mxCell>
        <mxCell id="458_SJfopfldQqDJjqZw-29" value="" style="ellipse;whiteSpace=wrap;html=1;aspect=fixed;" vertex="1" parent="1">
          <mxGeometry x="945" y="380" width="80" height="80" as="geometry" />
        </mxCell>
        <mxCell id="458_SJfopfldQqDJjqZw-71" value="" style="edgeStyle=orthogonalEdgeStyle;rounded=0;orthogonalLoop=1;jettySize=auto;html=1;curved=0;" edge="1" parent="1" source="458_SJfopfldQqDJjqZw-31" target="458_SJfopfldQqDJjqZw-70">
          <mxGeometry relative="1" as="geometry" />
        </mxCell>
        <mxCell id="458_SJfopfldQqDJjqZw-31" value="" style="html=1;points=[[0,0,0,0,5],[0,1,0,0,-5],[1,0,0,0,5],[1,1,0,0,-5]];perimeter=orthogonalPerimeter;outlineConnect=0;targetShapes=umlLifeline;portConstraint=eastwest;newEdgeStyle={&quot;curved&quot;:0,&quot;rounded&quot;:0};fillColor=#000000;" vertex="1" parent="1">
          <mxGeometry x="1105" y="380" width="10" height="80" as="geometry" />
        </mxCell>
        <mxCell id="458_SJfopfldQqDJjqZw-34" value="" style="edgeStyle=orthogonalEdgeStyle;rounded=0;orthogonalLoop=1;jettySize=auto;html=1;" edge="1" parent="1">
          <mxGeometry relative="1" as="geometry">
            <mxPoint x="1025" y="430" as="sourcePoint" />
            <mxPoint x="1105" y="430" as="targetPoint" />
          </mxGeometry>
        </mxCell>
        <mxCell id="458_SJfopfldQqDJjqZw-35" value="" style="edgeStyle=orthogonalEdgeStyle;rounded=0;orthogonalLoop=1;jettySize=auto;html=1;" edge="1" parent="1">
          <mxGeometry relative="1" as="geometry">
            <mxPoint x="1025" y="440" as="sourcePoint" />
            <mxPoint x="1105" y="440" as="targetPoint" />
          </mxGeometry>
        </mxCell>
        <mxCell id="458_SJfopfldQqDJjqZw-36" value="" style="edgeStyle=orthogonalEdgeStyle;rounded=0;orthogonalLoop=1;jettySize=auto;html=1;" edge="1" parent="1">
          <mxGeometry relative="1" as="geometry">
            <mxPoint x="1025" y="405" as="sourcePoint" />
            <mxPoint x="1105" y="405" as="targetPoint" />
          </mxGeometry>
        </mxCell>
        <mxCell id="458_SJfopfldQqDJjqZw-40" value="" style="edgeStyle=orthogonalEdgeStyle;rounded=0;orthogonalLoop=1;jettySize=auto;html=1;curved=0;" edge="1" parent="1" source="458_SJfopfldQqDJjqZw-41" target="458_SJfopfldQqDJjqZw-43">
          <mxGeometry relative="1" as="geometry" />
        </mxCell>
        <mxCell id="458_SJfopfldQqDJjqZw-69" style="edgeStyle=orthogonalEdgeStyle;rounded=0;orthogonalLoop=1;jettySize=auto;html=1;curved=0;entryX=1;entryY=0.5;entryDx=0;entryDy=0;" edge="1" parent="1" source="458_SJfopfldQqDJjqZw-41" target="458_SJfopfldQqDJjqZw-59">
          <mxGeometry relative="1" as="geometry">
            <Array as="points">
              <mxPoint x="445" y="615" />
              <mxPoint x="445" y="565" />
              <mxPoint x="605" y="565" />
              <mxPoint x="605" y="325" />
            </Array>
          </mxGeometry>
        </mxCell>
        <mxCell id="458_SJfopfldQqDJjqZw-41" value="" style="html=1;points=[[0,0,0,0,5],[0,1,0,0,-5],[1,0,0,0,5],[1,1,0,0,-5]];perimeter=orthogonalPerimeter;outlineConnect=0;targetShapes=umlLifeline;portConstraint=eastwest;newEdgeStyle={&quot;curved&quot;:0,&quot;rounded&quot;:0};fillColor=#000000;" vertex="1" parent="1">
          <mxGeometry x="405" y="600" width="10" height="80" as="geometry" />
        </mxCell>
        <mxCell id="458_SJfopfldQqDJjqZw-42" value="" style="edgeStyle=orthogonalEdgeStyle;rounded=0;orthogonalLoop=1;jettySize=auto;html=1;" edge="1" parent="1" source="458_SJfopfldQqDJjqZw-43" target="458_SJfopfldQqDJjqZw-45">
          <mxGeometry relative="1" as="geometry" />
        </mxCell>
        <mxCell id="458_SJfopfldQqDJjqZw-43" value="" style="ellipse;whiteSpace=wrap;html=1;aspect=fixed;" vertex="1" parent="1">
          <mxGeometry x="475" y="600" width="80" height="80" as="geometry" />
        </mxCell>
        <mxCell id="458_SJfopfldQqDJjqZw-44" value="" style="edgeStyle=orthogonalEdgeStyle;rounded=0;orthogonalLoop=1;jettySize=auto;html=1;curved=0;" edge="1" parent="1" source="458_SJfopfldQqDJjqZw-45" target="458_SJfopfldQqDJjqZw-47">
          <mxGeometry relative="1" as="geometry" />
        </mxCell>
        <mxCell id="458_SJfopfldQqDJjqZw-45" value="" style="html=1;points=[[0,0,0,0,5],[0,1,0,0,-5],[1,0,0,0,5],[1,1,0,0,-5]];perimeter=orthogonalPerimeter;outlineConnect=0;targetShapes=umlLifeline;portConstraint=eastwest;newEdgeStyle={&quot;curved&quot;:0,&quot;rounded&quot;:0};fillColor=#000000;" vertex="1" parent="1">
          <mxGeometry x="615" y="600" width="10" height="80" as="geometry" />
        </mxCell>
        <mxCell id="458_SJfopfldQqDJjqZw-46" value="" style="edgeStyle=orthogonalEdgeStyle;rounded=0;orthogonalLoop=1;jettySize=auto;html=1;" edge="1" parent="1" source="458_SJfopfldQqDJjqZw-47" target="458_SJfopfldQqDJjqZw-49">
          <mxGeometry relative="1" as="geometry" />
        </mxCell>
        <mxCell id="458_SJfopfldQqDJjqZw-47" value="" style="ellipse;whiteSpace=wrap;html=1;aspect=fixed;" vertex="1" parent="1">
          <mxGeometry x="695" y="600" width="80" height="80" as="geometry" />
        </mxCell>
        <mxCell id="458_SJfopfldQqDJjqZw-82" style="edgeStyle=orthogonalEdgeStyle;rounded=0;orthogonalLoop=1;jettySize=auto;html=1;curved=0;entryX=0.081;entryY=0.769;entryDx=0;entryDy=0;entryPerimeter=0;" edge="1" parent="1" source="458_SJfopfldQqDJjqZw-49" target="458_SJfopfldQqDJjqZw-29">
          <mxGeometry relative="1" as="geometry">
            <Array as="points">
              <mxPoint x="895" y="640" />
              <mxPoint x="895" y="445" />
              <mxPoint x="945" y="445" />
              <mxPoint x="945" y="442" />
            </Array>
          </mxGeometry>
        </mxCell>
        <mxCell id="458_SJfopfldQqDJjqZw-49" value="" style="html=1;points=[[0,0,0,0,5],[0,1,0,0,-5],[1,0,0,0,5],[1,1,0,0,-5]];perimeter=orthogonalPerimeter;outlineConnect=0;targetShapes=umlLifeline;portConstraint=eastwest;newEdgeStyle={&quot;curved&quot;:0,&quot;rounded&quot;:0};fillColor=#000000;" vertex="1" parent="1">
          <mxGeometry x="835" y="600" width="10" height="80" as="geometry" />
        </mxCell>
        <mxCell id="458_SJfopfldQqDJjqZw-50" value="" style="edgeStyle=orthogonalEdgeStyle;rounded=0;orthogonalLoop=1;jettySize=auto;html=1;" edge="1" parent="1">
          <mxGeometry relative="1" as="geometry">
            <mxPoint x="775" y="650" as="sourcePoint" />
            <mxPoint x="835" y="650" as="targetPoint" />
          </mxGeometry>
        </mxCell>
        <mxCell id="458_SJfopfldQqDJjqZw-51" value="" style="edgeStyle=orthogonalEdgeStyle;rounded=0;orthogonalLoop=1;jettySize=auto;html=1;" edge="1" parent="1">
          <mxGeometry relative="1" as="geometry">
            <mxPoint x="775" y="630" as="sourcePoint" />
            <mxPoint x="835" y="630" as="targetPoint" />
          </mxGeometry>
        </mxCell>
        <mxCell id="458_SJfopfldQqDJjqZw-52" value="" style="edgeStyle=orthogonalEdgeStyle;rounded=0;orthogonalLoop=1;jettySize=auto;html=1;" edge="1" parent="1">
          <mxGeometry relative="1" as="geometry">
            <mxPoint x="775" y="660" as="sourcePoint" />
            <mxPoint x="835" y="660" as="targetPoint" />
          </mxGeometry>
        </mxCell>
        <mxCell id="458_SJfopfldQqDJjqZw-53" value="" style="edgeStyle=orthogonalEdgeStyle;rounded=0;orthogonalLoop=1;jettySize=auto;html=1;" edge="1" parent="1">
          <mxGeometry relative="1" as="geometry">
            <mxPoint x="775" y="670" as="sourcePoint" />
            <mxPoint x="835" y="670" as="targetPoint" />
          </mxGeometry>
        </mxCell>
        <mxCell id="458_SJfopfldQqDJjqZw-54" value="" style="edgeStyle=orthogonalEdgeStyle;rounded=0;orthogonalLoop=1;jettySize=auto;html=1;" edge="1" parent="1">
          <mxGeometry relative="1" as="geometry">
            <mxPoint x="775" y="620" as="sourcePoint" />
            <mxPoint x="835" y="620" as="targetPoint" />
          </mxGeometry>
        </mxCell>
        <mxCell id="458_SJfopfldQqDJjqZw-59" value="" style="ellipse;whiteSpace=wrap;html=1;aspect=fixed;" vertex="1" parent="1">
          <mxGeometry x="475" y="285" width="80" height="80" as="geometry" />
        </mxCell>
        <mxCell id="458_SJfopfldQqDJjqZw-60" value="" style="ellipse;whiteSpace=wrap;html=1;aspect=fixed;" vertex="1" parent="1">
          <mxGeometry x="475" y="460" width="80" height="80" as="geometry" />
        </mxCell>
        <mxCell id="458_SJfopfldQqDJjqZw-61" value="" style="ellipse;whiteSpace=wrap;html=1;aspect=fixed;fillColor=#000000;" vertex="1" parent="1">
          <mxGeometry x="496.25" y="306.25" width="37.5" height="37.5" as="geometry" />
        </mxCell>
        <mxCell id="458_SJfopfldQqDJjqZw-62" style="edgeStyle=orthogonalEdgeStyle;rounded=0;orthogonalLoop=1;jettySize=auto;html=1;entryX=0;entryY=1;entryDx=0;entryDy=-5;entryPerimeter=0;" edge="1" parent="1" source="458_SJfopfldQqDJjqZw-59" target="458_SJfopfldQqDJjqZw-8">
          <mxGeometry relative="1" as="geometry">
            <Array as="points">
              <mxPoint x="385" y="325" />
              <mxPoint x="385" y="235" />
            </Array>
          </mxGeometry>
        </mxCell>
        <mxCell id="458_SJfopfldQqDJjqZw-64" style="edgeStyle=orthogonalEdgeStyle;rounded=0;orthogonalLoop=1;jettySize=auto;html=1;entryX=0;entryY=0;entryDx=0;entryDy=5;entryPerimeter=0;" edge="1" parent="1" source="458_SJfopfldQqDJjqZw-60" target="458_SJfopfldQqDJjqZw-41">
          <mxGeometry relative="1" as="geometry">
            <Array as="points">
              <mxPoint x="385" y="505" />
              <mxPoint x="385" y="605" />
            </Array>
          </mxGeometry>
        </mxCell>
        <mxCell id="458_SJfopfldQqDJjqZw-73" value="" style="edgeStyle=orthogonalEdgeStyle;rounded=0;orthogonalLoop=1;jettySize=auto;html=1;" edge="1" parent="1" source="458_SJfopfldQqDJjqZw-70" target="458_SJfopfldQqDJjqZw-72">
          <mxGeometry relative="1" as="geometry" />
        </mxCell>
        <mxCell id="458_SJfopfldQqDJjqZw-70" value="" style="ellipse;whiteSpace=wrap;html=1;aspect=fixed;" vertex="1" parent="1">
          <mxGeometry x="1205" y="380" width="80" height="80" as="geometry" />
        </mxCell>
        <mxCell id="458_SJfopfldQqDJjqZw-72" value="" style="html=1;points=[[0,0,0,0,5],[0,1,0,0,-5],[1,0,0,0,5],[1,1,0,0,-5]];perimeter=orthogonalPerimeter;outlineConnect=0;targetShapes=umlLifeline;portConstraint=eastwest;newEdgeStyle={&quot;curved&quot;:0,&quot;rounded&quot;:0};fillColor=#000000;" vertex="1" parent="1">
          <mxGeometry x="1365" y="380" width="10" height="80" as="geometry" />
        </mxCell>
        <mxCell id="458_SJfopfldQqDJjqZw-74" value="Ingresa desodorante" style="text;html=1;align=center;verticalAlign=middle;resizable=0;points=[];autosize=1;strokeColor=none;fillColor=none;" vertex="1" parent="1">
          <mxGeometry y="350" width="140" height="30" as="geometry" />
        </mxCell>
        <mxCell id="458_SJfopfldQqDJjqZw-75" value="&lt;div&gt;Desodorantes esperando&lt;/div&gt;&lt;div&gt;linea&lt;br&gt;&lt;/div&gt;" style="text;html=1;align=center;verticalAlign=middle;resizable=0;points=[];autosize=1;strokeColor=none;fillColor=none;" vertex="1" parent="1">
          <mxGeometry x="100" y="455" width="170" height="40" as="geometry" />
        </mxCell>
        <mxCell id="458_SJfopfldQqDJjqZw-76" value="&lt;div&gt;Ingresa a&lt;/div&gt;&lt;div&gt;relleno por&lt;/div&gt;&lt;div&gt;linea 1&lt;br&gt;&lt;/div&gt;" style="text;html=1;align=center;verticalAlign=middle;resizable=0;points=[];autosize=1;strokeColor=none;fillColor=none;" vertex="1" parent="1">
          <mxGeometry x="365" y="110" width="80" height="60" as="geometry" />
        </mxCell>
        <mxCell id="458_SJfopfldQqDJjqZw-77" value="&lt;div&gt;Rellenando&lt;/div&gt;&lt;div&gt;en linea 1&lt;br&gt;&lt;/div&gt;" style="text;html=1;align=center;verticalAlign=middle;resizable=0;points=[];autosize=1;strokeColor=none;fillColor=none;" vertex="1" parent="1">
          <mxGeometry x="470" y="110" width="90" height="40" as="geometry" />
        </mxCell>
        <mxCell id="458_SJfopfldQqDJjqZw-78" value="&lt;div&gt;Inicio de&lt;/div&gt;&lt;div&gt;empaquetamiento por&lt;/div&gt;&lt;div&gt;linea 1&lt;br&gt;&lt;/div&gt;" style="text;html=1;align=center;verticalAlign=middle;resizable=0;points=[];autosize=1;strokeColor=none;fillColor=none;" vertex="1" parent="1">
          <mxGeometry x="545" y="110" width="150" height="60" as="geometry" />
        </mxCell>
        <mxCell id="458_SJfopfldQqDJjqZw-79" value="&lt;div&gt;Empaquetando en&lt;/div&gt;&lt;div&gt;linea 1&lt;br&gt;&lt;/div&gt;" style="text;html=1;align=center;verticalAlign=middle;resizable=0;points=[];autosize=1;strokeColor=none;fillColor=none;" vertex="1" parent="1">
          <mxGeometry x="670" y="240" width="130" height="40" as="geometry" />
        </mxCell>
        <mxCell id="458_SJfopfldQqDJjqZw-80" value="&lt;div&gt;Paquete enviado por&lt;/div&gt;&lt;div&gt;linea 1&lt;br&gt;&lt;/div&gt;" style="text;html=1;align=center;verticalAlign=middle;resizable=0;points=[];autosize=1;strokeColor=none;fillColor=none;" vertex="1" parent="1">
          <mxGeometry x="770" y="120" width="140" height="40" as="geometry" />
        </mxCell>
        <mxCell id="458_SJfopfldQqDJjqZw-84" value="&lt;div&gt;Ingresa a&lt;/div&gt;&lt;div&gt;relleno por&lt;/div&gt;&lt;div&gt;linea 2 &lt;br&gt;&lt;/div&gt;" style="text;html=1;align=center;verticalAlign=middle;resizable=0;points=[];autosize=1;strokeColor=none;fillColor=none;" vertex="1" parent="1">
          <mxGeometry x="365" y="680" width="80" height="60" as="geometry" />
        </mxCell>
        <mxCell id="458_SJfopfldQqDJjqZw-85" value="&lt;div&gt;Rellenando&lt;/div&gt;&lt;div&gt;en linea 2&lt;br&gt;&lt;/div&gt;" style="text;html=1;align=center;verticalAlign=middle;resizable=0;points=[];autosize=1;strokeColor=none;fillColor=none;" vertex="1" parent="1">
          <mxGeometry x="470" y="680" width="90" height="40" as="geometry" />
        </mxCell>
        <mxCell id="458_SJfopfldQqDJjqZw-86" value="&lt;div&gt;Inicio de&lt;/div&gt;&lt;div&gt;empaquetamiento por&lt;/div&gt;&lt;div&gt;linea 2&lt;br&gt;&lt;/div&gt;" style="text;html=1;align=center;verticalAlign=middle;resizable=0;points=[];autosize=1;strokeColor=none;fillColor=none;" vertex="1" parent="1">
          <mxGeometry x="545" y="680" width="150" height="60" as="geometry" />
        </mxCell>
        <mxCell id="458_SJfopfldQqDJjqZw-87" value="&lt;div&gt;Empaquetando en&lt;/div&gt;&lt;div&gt;linea 2&lt;br&gt;&lt;/div&gt;" style="text;html=1;align=center;verticalAlign=middle;resizable=0;points=[];autosize=1;strokeColor=none;fillColor=none;" vertex="1" parent="1">
          <mxGeometry x="670" y="560" width="130" height="40" as="geometry" />
        </mxCell>
        <mxCell id="458_SJfopfldQqDJjqZw-88" value="&lt;div&gt;Paquete enviado por&lt;/div&gt;&lt;div&gt;linea 2&lt;br&gt;&lt;/div&gt;" style="text;html=1;align=center;verticalAlign=middle;resizable=0;points=[];autosize=1;strokeColor=none;fillColor=none;" vertex="1" parent="1">
          <mxGeometry x="770" y="690" width="140" height="40" as="geometry" />
        </mxCell>
        <mxCell id="458_SJfopfldQqDJjqZw-89" value="Linea 1 disponible" style="text;html=1;align=center;verticalAlign=middle;resizable=0;points=[];autosize=1;strokeColor=none;fillColor=none;" vertex="1" parent="1">
          <mxGeometry x="355" y="348.75" width="130" height="30" as="geometry" />
        </mxCell>
        <mxCell id="458_SJfopfldQqDJjqZw-90" value="Linea 2 disponible" style="text;html=1;align=center;verticalAlign=middle;resizable=0;points=[];autosize=1;strokeColor=none;fillColor=none;" vertex="1" parent="1">
          <mxGeometry x="365" y="455" width="130" height="30" as="geometry" />
        </mxCell>
        <mxCell id="458_SJfopfldQqDJjqZw-91" value="Creando paquete general" style="text;html=1;align=center;verticalAlign=middle;resizable=0;points=[];autosize=1;strokeColor=none;fillColor=none;" vertex="1" parent="1">
          <mxGeometry x="905" y="348.75" width="160" height="30" as="geometry" />
        </mxCell>
        <mxCell id="458_SJfopfldQqDJjqZw-92" value="&lt;div&gt;Paquete general&lt;/div&gt;&lt;div&gt;a espera&lt;/div&gt;&lt;div&gt;de transporte&lt;br&gt;&lt;/div&gt;" style="text;html=1;align=center;verticalAlign=middle;resizable=0;points=[];autosize=1;strokeColor=none;fillColor=none;" vertex="1" parent="1">
          <mxGeometry x="1055" y="455" width="110" height="60" as="geometry" />
        </mxCell>
        <mxCell id="458_SJfopfldQqDJjqZw-93" value="&lt;div&gt;Paquete general&lt;/div&gt;&lt;div&gt;en espera de despacho&lt;br&gt;&lt;/div&gt;" style="text;html=1;align=center;verticalAlign=middle;resizable=0;points=[];autosize=1;strokeColor=none;fillColor=none;" vertex="1" parent="1">
          <mxGeometry x="1170" y="340" width="150" height="40" as="geometry" />
        </mxCell>
        <mxCell id="458_SJfopfldQqDJjqZw-94" value="&lt;div&gt;Se despacha&lt;/div&gt;&lt;div&gt;el paquete&lt;br&gt;&lt;/div&gt;" style="text;html=1;align=center;verticalAlign=middle;resizable=0;points=[];autosize=1;strokeColor=none;fillColor=none;" vertex="1" parent="1">
          <mxGeometry x="1300" y="465" width="100" height="40" as="geometry" />
        </mxCell>
      </root>
    </mxGraphModel>
  </diagram>
</mxfile>
